<svg xmlns="http://www.w3.org/2000/svg" xmlns:xlink="http://www.w3.org/1999/xlink" viewBox="0 0 375 375" width="192" height="192" preserveAspectRatio="xMidYMid meet">
<defs>
<clipPath id="bgClip"><rect x="0" y="0" width="375" height="375" rx="70" ry="70"/></clipPath>
<clipPath id="brushClip"><path d="M 151.039062 55.398438 L 223.789062 55.398438 L 223.789062 232 L 151.039062 232 Z M 151.039062 55.398438 " clip-rule="nonzero"/></clipPath>
<clipPath id="brushOutlineClip"><path d="M 151.039062 55.398438 L 223.789062 55.398438 L 223.789062 237 L 151.039062 237 Z M 151.039062 55.398438 " clip-rule="nonzero"/></clipPath>
<clipPath id="dropClip"><path d="M 153 156 L 220 156 L 220 319.398438 L 153 319.398438 Z M 153 156 " clip-rule="nonzero"/></clipPath>
</defs>
<g clip-path="url(#bgClip)">
<rect width="375" height="375" fill="#000000"/>
<g clip-path="url(#brushClip)">
<path fill="#fbd107" d="M 194.664062 55.972656 C 192.546875 55.863281 190.46875 57.566406 190.78125 61.796875 L 191.019531 116.410156 C 191.03125 118.671875 189.492188 120.5 187.574219 120.515625 C 185.652344 120.53125 184.101562 118.722656 184.089844 116.464844 L 183.925781 78.265625 C 183.734375 73.375 179.433594 74.207031 179.253906 78.308594 L 179.289062 86.347656 C 179.296875 88.609375 177.761719 90.4375 175.84375 90.453125 C 173.921875 90.46875 172.371094 88.660156 172.359375 86.402344 L 172.246094 60.871094 C 171.746094 56.304688 166.171875 56.421875 165.824219 60.828125 L 166 100.789062 C 166.011719 103.050781 164.472656 104.878906 162.554688 104.894531 C 160.636719 104.910156 159.082031 103.105469 159.074219 100.84375 L 158.984375 80.765625 C 158.382812 76.359375 152.90625 76.425781 151.421875 79.46875 L 155.140625 188.90625 C 153 298.207031 162.648438 155.105469 217.347656 215.925781 L 223.414062 95.675781 C 223.128906 90.078125 217.894531 90.664062 217.703125 95.945312 L 217.765625 110.4375 C 217.773438 112.695312 216.238281 114.53125 214.316406 114.546875 C 212.398438 114.558594 210.847656 112.753906 210.835938 110.492188 L 210.730469 86.199219 C 211.027344 81.242188 204.667969 79.722656 204.417969 86.5 L 204.222656 136.679688 C 204.21875 138.546875 202.9375 140.011719 201.351562 139.964844 C 199.769531 139.917969 198.5 138.375 198.507812 136.511719 L 198.796875 61.054688 C 198.941406 58.015625 196.78125 56.085938 194.664062 55.972656 Z M 194.664062 55.972656 "/>
</g>
<g clip-path="url(#brushOutlineClip)">
<path stroke-linecap="butt" transform="matrix(1.98398, 0.00294582, -0.00330467, 2.226301, 144.367466, 1.547201)" fill="none" stroke-linejoin="miter" d="M 25.392031 24.412981 C 24.32481 24.365265 23.278634 25.131651 23.43931 27.031661 L 23.600273 51.562395 C 23.607872 52.578293 22.833496 53.400467 21.866782 53.408764 C 20.898099 53.417064 20.115096 52.605724 20.1075 51.59158 L 19.996226 34.433576 C 19.896092 32.236959 17.728964 32.613555 17.641464 34.455992 L 17.665199 38.06691 C 17.670829 39.082811 16.898422 39.904982 15.931708 39.91328 C 14.963025 39.92158 14.180021 39.11024 14.172425 38.096096 L 14.096226 26.628186 C 13.840791 24.577406 11.03127 24.633761 10.859335 26.613168 L 10.977833 44.562484 C 10.985432 45.578383 10.211057 46.400556 9.244342 46.408854 C 8.277628 46.417151 7.492659 45.607569 7.487029 44.591668 L 7.426722 35.573146 C 7.120216 33.594372 4.35988 33.627853 3.613978 34.995667 L 5.570242 84.149719 C 4.573066 133.246268 9.329163 68.962263 36.94506 96.244715 L 39.91278 42.227437 C 39.764863 39.713303 37.126986 39.979982 37.034462 42.352313 L 37.076807 48.861792 C 37.082434 49.875938 36.310033 50.701619 35.34135 50.709919 C 34.374633 50.716462 33.591633 49.906876 33.584034 48.890978 L 33.512698 37.979266 C 33.658625 35.752496 30.452132 35.074203 30.331194 38.11858 L 30.270293 60.658145 C 30.269721 61.496841 29.62502 62.155666 28.825615 62.135668 C 28.028179 62.115668 27.387135 61.423453 27.389678 60.586509 L 27.478921 26.692944 C 27.549496 25.327778 26.459255 24.462452 25.392031 24.412981 Z M 25.392031 24.412981 " stroke="#000000" stroke-width="0.38" stroke-miterlimit="4"/>
</g>
<path fill="#ffffff" d="M 170.109375 157.167969 C 157.109375 170.003906 154.613281 213.660156 154.585938 232.148438 C 154.578125 237.398438 158.851562 241.628906 164.167969 241.636719 C 193.824219 238.8125 175.363281 288.3125 176.425781 310.933594 C 175.96875 315.253906 179.957031 318.78125 184.355469 318.789062 L 188.296875 318.792969 C 192.699219 318.800781 196.246094 315.308594 196.253906 310.964844 C 200.679688 285.507812 179.039062 241.683594 209.402344 241.703125 C 214.71875 241.710938 219.003906 237.492188 219.011719 232.246094 C 215.582031 219.761719 224.65625 178.679688 203.933594 169.417969 Z M 170.109375 157.167969 "/>
<g clip-path="url(#dropClip)">
<path stroke-linecap="square" transform="matrix(2.320905, 0.00344609, -0.00280957, 1.892759, 362.429863, 27.285115)" fill="none" stroke-linejoin="round" d="M -82.781173 68.771622 C -88.374214 75.563406 -89.421773 98.630185 -89.42173 108.398083 C -89.421738 111.171812 -87.577756 113.403535 -85.287096 113.403492 C -72.51105 111.888113 -80.433571 138.054833 -79.961309 150.005358 C -80.155464 152.288259 -78.434796 154.148725 -76.539657 154.149402 L -74.841439 154.148374 C -72.944616 154.149048 -71.418624 152.301245 -71.418036 150.006314 C -69.527401 136.553178 -78.879626 113.416591 -65.797127 113.403091 C -63.506466 113.403048 -61.662839 111.170803 -61.662828 108.399138 C -63.148546 101.805983 -59.265054 80.094076 -68.199653 75.217106 Z M -82.781173 68.771622 " stroke="#000000" stroke-width="0.481" stroke-miterlimit="4"/>
</g>
<path stroke-linecap="square" transform="matrix(2.320905, 0.00344609, -0.00280957, 1.892759, 362.429863, 27.285115)" fill="#000000" stroke-linejoin="round" d="M -73.770387 147.707411 C -73.770167 147.889024 -73.781729 148.070658 -73.805074 148.25025 C -73.830103 148.429845 -73.865237 148.603267 -73.910475 148.77258 C -73.957396 148.941896 -74.014426 149.102975 -74.083249 149.253757 C -74.150387 149.406599 -74.227638 149.547077 -74.313317 149.677252 C -74.398999 149.805362 -74.493111 149.921106 -74.595656 150.022418 C -74.696517 150.123727 -74.802446 150.210599 -74.915126 150.280973 C -75.027809 150.349283 -75.143876 150.403153 -75.263331 150.438455 C -75.382787 150.473757 -75.503945 150.492551 -75.626809 150.492775 C -75.74799 150.492995 -75.869193 150.474642 -75.988736 150.437712 C -76.108277 150.402845 -76.224473 150.349398 -76.335641 150.279432 C -76.448491 150.209468 -76.55631 150.125049 -76.657419 150.022044 C -76.758525 149.921103 -76.852917 149.805703 -76.938911 149.675841 C -77.024905 149.545979 -77.100813 149.40578 -77.170001 149.255249 C -77.237508 149.102652 -77.293245 148.941778 -77.340575 148.772634 C -77.387906 148.60349 -77.421777 148.430193 -77.445558 148.250687 C -77.469338 148.071181 -77.481339 147.88959 -77.481559 147.707977 C -77.481781 147.5243 -77.47022 147.342666 -77.446874 147.163074 C -77.421846 146.983479 -77.386711 146.810057 -77.341473 146.640745 C -77.294552 146.471429 -77.23752 146.312413 -77.168699 146.159568 C -77.101561 146.006725 -77.02431 145.866247 -76.938628 145.738137 C -76.852949 145.607962 -76.758838 145.492219 -76.657976 145.39091 C -76.555431 145.289597 -76.4495 145.204789 -76.33682 145.134415 C -76.224139 145.064042 -76.108072 145.010172 -75.988617 144.97487 C -75.869162 144.939568 -75.748001 144.922837 -75.62682 144.922617 C -75.503956 144.922393 -75.382753 144.940746 -75.263212 144.975613 C -75.143672 145.01048 -75.029158 145.06393 -74.916308 145.133893 C -74.803457 145.203856 -74.695636 145.290339 -74.59453 145.39128 C -74.493423 145.492222 -74.399031 145.607622 -74.313038 145.737484 C -74.227044 145.867346 -74.151136 146.007545 -74.081945 146.160139 C -74.014437 146.312737 -73.958704 146.471547 -73.911373 146.640691 C -73.864042 146.809835 -73.830169 146.985195 -73.806391 147.162638 C -73.782611 147.342144 -73.770609 147.523735 -73.770387 147.707411 Z M -73.770387 147.707411 " stroke="#000000" stroke-width="0.481" stroke-miterlimit="4"/>
</g>
</svg>
